<svg width="250" height="90" viewBox="0 0 250 90" fill="none" xmlns="http://www.w3.org/2000/svg">
    <style>
        .logo-fill { fill: var(--logo-cor-claro); }
        .logo-text { fill: var(--logo-texto-cor-claro); font-family: 'Georgia', serif; }
        .logo-subtitle { fill: var(--logo-subtitle-cor-claro); font-family: 'Georgia', serif; }

        body.dark-mode .logo-fill { fill: var(--logo-cor-escuro); }
        body.dark-mode .logo-text { fill: var(--logo-texto-cor-escuro); }
        body.dark-mode .logo-subtitle { fill: var(--logo-subtitle-cor-escuro); }
    </style>

    <g class="logo-fill">
        <path d="M45.5 15C42.43 15 39.54 15.658 36.811 16.974C34.083 18.29 31.624 20.079 29.434 22.341C27.244 24.603 25.437 27.289 24.013 30.399C22.589 33.509 21.728 36.944 21.43 40.704H27.429C27.679 38.03 28.329 35.617 29.379 33.464C30.429 31.311 31.841 29.429 33.615 27.817C35.389 26.205 37.498 24.896 39.941 23.89C42.384 22.884 45.039 22.381 47.906 22.381C50.286 22.381 52.387 22.793 54.279 23.618C56.171 24.443 57.708 25.597 58.89 27.081C60.072 28.565 60.852 30.292 61.23 32.261C61.608 34.23 61.474 36.199 60.828 38.168C60.183 40.137 59.07 41.979 57.491 43.694C55.912 45.409 53.951 46.852 51.608 48C49.265 49.148 46.608 50.089 43.639 50.819C40.67 51.549 37.498 52.001 34.122 52.176L34.122 57.81C37.388 57.653 40.487 57.172 43.419 56.376C46.351 55.58 49.006 54.516 51.488 53.184C53.97 51.852 56.101 50.315 57.881 48.574C59.661 46.833 61.028 44.912 61.981 42.81C62.934 40.708 63.411 38.482 63.411 36.138C63.411 33.272 62.836 30.635 61.687 28.225C60.538 25.815 58.871 23.778 56.681 22.112C54.491 20.446 51.868 19.167 48.802 18.275C45.736 17.383 42.43 16.937 38.905 16.937C34.821 16.937 31.025 17.797 27.514 19.516C24.003 21.235 21.053 23.684 18.663 26.861L14.072 23.109L15.343 14.808L18.991 14.808V12.01L10.372 12.01L10.372 14.808H14.156L14.739 18.254L18.151 15.452C20.675 13.435 23.473 11.979 26.545 11.087C29.616 10.195 32.882 9.75 36.352 9.75C40.67 9.75 44.576 10.596 48.069 12.288C51.562 13.98 54.464 16.398 56.775 19.542C59.086 22.686 60.67 26.419 61.524 30.741C62.379 35.063 62.193 39.567 61.025 44.253C59.857 48.939 57.734 53.056 54.656 56.603C51.578 60.15 47.697 62.983 43.013 65.101C38.329 67.219 33.102 68.278 27.332 68.278H18.991L18.991 65.48H27.332C31.517 65.48 35.25 64.673 38.532 63.058C41.815 61.443 44.437 59.208 46.406 56.353L45.5 15ZM10.372 65.48L10.372 68.278L0.999998 68.278V65.48L10.372 65.48ZM10.372 57.81L10.372 60.608L0.999998 60.608V57.81L10.372 57.81ZM10.372 50.14L10.372 52.938L0.999998 52.938V50.14L10.372 50.14ZM10.372 42.47L10.372 45.268L0.999998 45.268V42.47L10.372 42.47ZM10.372 34.801L10.372 37.599L0.999998 37.599V34.801L10.372 34.801ZM10.372 27.132L10.372 29.93L0.999998 29.93V27.132L10.372 27.132Z" transform="translate(0 15)"/>
        <path d="M72.0833 39.75C72.0833 39.4625 72.0673 39.1812 72.0353 38.9062C72.0033 38.6312 71.9573 38.3688 71.8973 38.1188C71.8373 37.8688 71.7633 37.625 71.6753 37.3875C71.5873 37.15 71.4913 36.9094 71.3873 36.6656L68.756 30.5656C68.4685 29.9875 68.081 29.5 67.5935 29.0938C67.106 28.6875 66.521 28.375 65.8485 28.1562L62.721 27.1875C62.4335 27.0938 62.146 27.0312 61.8585 26.9999C61.571 26.9687 61.2835 26.9531 60.996 26.9531H60.9803L60.9647 26.9531C60.6773 26.9531 60.3897 26.9687 60.1023 26.9999C59.8148 27.0312 59.5273 27.0938 59.2398 27.1875L56.1123 28.1562C55.4398 28.375 54.8548 28.6875 54.3673 29.0938C53.8798 29.5 53.4923 29.9875 53.2048 30.5656L50.5735 36.6656C50.4695 36.9094 50.3735 37.15 50.2855 37.3875C50.1975 37.625 50.1235 37.8688 50.0635 38.1188C50.0035 38.3688 49.9575 38.6312 49.9255 38.9062C49.8935 39.1812 49.8775 39.4625 49.8775 39.75C49.8775 40.0375 49.8935 40.3188 49.9255 40.5938C49.9575 40.8688 50.0035 41.1312 50.0635 41.3812C50.1235 41.6312 50.1975 41.875 50.2855 42.1125C50.3735 42.35 50.4695 42.5906 50.5735 42.8344L53.2048 48.9344C53.4923 49.5125 53.8798 50 54.3673 50.4062C54.8548 50.8125 55.4398 51.125 56.1123 51.3438L59.2398 52.3125C59.5273 52.4062 59.8148 52.4687 60.1023 52.5001C60.3897 52.5313 60.6773 52.5469 60.9647 52.5469L60.9803 52.5469C61.2678 52.5469 61.5553 52.5313 61.8428 52.5001C62.1303 52.4687 62.4178 52.4062 62.7053 52.3125L65.8328 51.3438C66.5053 51.125 67.0903 50.8125 67.5778 50.4062C68.0653 50 68.4528 49.5125 68.7403 48.9344L71.3716 42.8344C71.4756 42.5906 71.5716 42.35 71.6596 42.1125C71.7476 41.875 71.8216 41.6312 71.8816 41.3812C71.9416 41.1312 71.9876 40.8688 72.0196 40.5938C72.0516 40.3188 72.0676 40.0375 72.0833 39.75Z" transform="translate(0 15)"/>
        <path d="M78.6917 29.8115C78.4333 29.7406 78.1813 29.626 77.9358 29.4678C77.6903 29.3096 77.4528 29.1125 77.2233 28.8765L74.8813 26.5345C74.6517 26.2985 74.4547 26.061 74.2965 25.8235C74.1382 25.586 74.0237 25.334 73.9528 25.0755C73.8818 24.817 73.8463 24.5505 73.8463 24.2765C73.8463 24.0025 73.8818 23.736 73.9528 23.4775C74.0237 23.219 74.1382 22.967 74.2965 22.7295C74.4547 22.492 74.6517 22.2545 74.8813 22.0185L77.2233 19.6765C77.4528 19.4405 77.6903 19.2435 77.9358 19.0853C78.1813 18.927 78.4333 18.8125 78.6917 18.7415C78.9502 18.6706 79.2167 18.635 79.4907 18.635C79.7647 18.635 80.0312 18.6706 80.2897 18.7415C80.5482 18.8125 80.7997 18.927 81.0452 19.0853C81.2907 19.2435 81.5282 19.4405 81.7578 19.6765L84.0998 22.0185C84.3293 22.2545 84.5263 22.492 84.6845 22.7295C84.8428 22.967 84.9573 23.219 85.0282 23.4775C85.0992 23.736 85.1347 24.0025 85.1347 24.2765C85.1347 24.5505 85.0992 24.817 85.0282 25.0755C84.9573 25.334 84.8428 25.586 84.6845 25.8235C84.5263 26.061 84.3293 26.2985 84.0998 26.5345L81.7578 28.8765C81.5282 29.1125 81.2907 29.3096 81.0452 29.4678C80.7997 29.626 80.5482 29.7406 80.2897 29.8115C80.0312 29.8825 79.7647 29.918 79.4907 29.918C79.2167 29.918 78.9502 29.8825 78.6917 29.8115Z" transform="translate(0 15)"/>
        <path d="M72.1023 39.75C72.1023 39.4795 72.0863 39.2125 72.0543 38.951C72.0223 38.6895 71.9763 38.4375 71.9163 38.195C71.8563 37.9525 71.7823 37.712 71.6943 37.4735C71.6063 37.235 71.5103 36.995 71.4063 36.7535L68.775 30.6535C68.4875 30.0755 68.1001 29.588 67.6126 29.1818C67.1251 28.7755 66.5401 28.4629 65.8676 28.2442L62.7401 27.2755C62.4526 27.1818 62.1651 27.1192 61.8776 27.088C61.5901 27.0568 61.3026 27.0411 61.0151 27.0411H60.9994L60.9838 27.0411C60.6963 27.0411 60.4088 27.0568 60.1213 27.088C59.8338 27.1192 59.5463 27.1818 59.2588 27.2755L56.1313 28.2442C55.4588 28.4629 54.8738 28.7755 54.3863 29.1818C53.8988 29.588 53.5113 30.0755 53.2238 30.6535L50.5925 36.7535C50.4885 36.995 50.3925 37.235 50.3045 37.4735C50.2165 37.712 50.1425 37.9525 50.0825 38.195C50.0225 38.4375 49.9765 38.6895 49.9445 38.951C49.9125 39.2125 49.8965 39.4795 49.8965 39.75C49.8965 40.0205 49.9125 40.2875 49.9445 40.549C49.9765 40.8105 50.0225 41.0625 50.0825 41.305C50.1425 41.5475 50.2165 41.788 50.3045 42.0265C50.3925 42.265 50.4885 42.505 50.5925 42.7465L53.2238 48.8465C53.5113 49.4245 53.8988 49.912 54.3863 50.3182C54.8738 50.7245 55.4588 51.0371 56.1313 51.2558L59.2588 52.2245C59.5463 52.3182 59.8338 52.3808 60.1213 52.412C60.4088 52.4432 60.6963 52.4589 60.9838 52.4589L60.9994 52.4589C61.2869 52.4589 61.5744 52.4432 61.8619 52.412C62.1494 52.3808 62.4369 52.3182 62.7244 52.2245L65.8519 51.2558C66.5244 51.0371 67.1094 50.7245 67.5969 50.3182C68.0844 49.912 68.4719 49.4245 68.7594 48.8465L71.3907 42.7465C71.4947 42.505 71.5907 42.265 71.6787 42.0265C71.7667 41.788 71.8407 41.5475 71.9007 41.305C71.9607 41.0625 72.0067 40.8105 72.0387 40.549C72.0707 40.2875 72.0867 40.0205 72.1023 39.75Z" transform="translate(0 15)"/>
    </g>

    <text x="95" y="45" class="logo-text" font-size="24" font-weight="bold">GLÓRIA VETERUM</text>
    <text x="95" y="70" class="logo-subtitle" font-size="14">BIBLIOTECA ANTIGA</text>
</svg>