<?xml version="1.0" encoding="UTF-8"?>
<!DOCTYPE svg PUBLIC "-//W3C//DTD SVG 1.1//EN" "http://www.w3.org/Graphics/SVG/1.1/DTD/svg11.dtd">
<svg xmlns="http://www.w3.org/2000/svg" version="1.1" width="283px" height="273px" style="shape-rendering:geometricPrecision; text-rendering:geometricPrecision; image-rendering:optimizeQuality; fill-rule:evenodd; clip-rule:evenodd" xmlns:xlink="http://www.w3.org/1999/xlink">
<g><path style="opacity:0.004" fill="#fefffe" d="M 242.5,2.5 C 243.833,3.16667 243.833,3.16667 242.5,2.5 Z"/></g>
<g><path style="opacity:0.004" fill="#fefffe" d="M 4.5,12.5 C 5.83333,13.1667 5.83333,13.1667 4.5,12.5 Z"/></g>
<g><path style="opacity:0.004" fill="#fefffe" d="M 141.5,13.5 C 142.833,14.1667 142.833,14.1667 141.5,13.5 Z"/></g>
<g><path style="opacity:0.004" fill="#fefffe" d="M 152.5,14.5 C 153.833,15.1667 153.833,15.1667 152.5,14.5 Z"/></g>
<g><path style="opacity:0.004" fill="#fefffe" d="M 224.5,14.5 C 225.833,15.1667 225.833,15.1667 224.5,14.5 Z"/></g>
<g><path style="opacity:0.004" fill="#fefffe" d="M 130.5,18.5 C 131.833,19.1667 131.833,19.1667 130.5,18.5 Z"/></g>
<g><path style="opacity:0.004" fill="#fefffe" d="M 274.5,18.5 C 275.833,19.1667 275.833,19.1667 274.5,18.5 Z"/></g>
<g><path style="opacity:0.004" fill="#fefffe" d="M 6.5,22.5 C 7.83333,23.1667 7.83333,23.1667 6.5,22.5 Z"/></g>
<g><path style="opacity:0.004" fill="#fefffe" d="M 40.5,24.5 C 41.8333,25.1667 41.8333,25.1667 40.5,24.5 Z"/></g>
<g><path style="opacity:0.004" fill="#fefffe" d="M 22.5,30.5 C 23.8333,31.1667 23.8333,31.1667 22.5,30.5 Z"/></g>
<g><path style="opacity:0.995" fill="#050506" d="M 117.5,37.5 C 118.496,37.4142 119.329,37.7476 120,38.5C 122.946,36.356 126.112,34.6893 129.5,33.5C 151.809,29.729 169.309,37.3957 182,56.5C 193.598,80.8408 189.432,102.007 169.5,120C 150.903,131.838 131.903,132.505 112.5,122C 92.0584,106.761 85.8917,86.9282 94,62.5C 98.9603,51.3757 106.794,43.0423 117.5,37.5 Z"/></g>
<g><path style="opacity:0.004" fill="#fefffe" d="M 12.5,34.5 C 13.8333,35.1667 13.8333,35.1667 12.5,34.5 Z"/></g>
<g><path style="opacity:0.439" fill="#515357" d="M 129.5,33.5 C 126.112,34.6893 122.946,36.356 120,38.5C 119.329,37.7476 118.496,37.4142 117.5,37.5C 121.085,35.1939 125.085,33.8606 129.5,33.5 Z"/></g>
<g><path style="opacity:0.004" fill="#fefffe" d="M 211.5,36.5 C 212.833,37.1667 212.833,37.1667 211.5,36.5 Z"/></g>
<g><path style="opacity:0.004" fill="#fefffe" d="M 87.5,46.5 C 88.8333,47.1667 88.8333,47.1667 87.5,46.5 Z"/></g>
<g><path style="opacity:0.004" fill="#fefffe" d="M 221.5,47.5 C 222.833,48.1667 222.833,48.1667 221.5,47.5 Z"/></g>
<g><path style="opacity:0.004" fill="#fefffe" d="M 244.5,48.5 C 245.833,49.1667 245.833,49.1667 244.5,48.5 Z"/></g>
<g><path style="opacity:0.004" fill="#fefffe" d="M 189.5,49.5 C 190.833,50.1667 190.833,50.1667 189.5,49.5 Z"/></g>
<g><path style="opacity:0.004" fill="#fefffe" d="M 267.5,52.5 C 268.833,53.1667 268.833,53.1667 267.5,52.5 Z"/></g>
<g><path style="opacity:0.004" fill="#fefffe" d="M 278.5,53.5 C 279.833,54.1667 279.833,54.1667 278.5,53.5 Z"/></g>
<g><path style="opacity:0.004" fill="#fefffe" d="M 59.5,56.5 C 60.8333,57.1667 60.8333,57.1667 59.5,56.5 Z"/></g>
<g><path style="opacity:0.004" fill="#fefffe" d="M 273.5,58.5 C 274.833,59.1667 274.833,59.1667 273.5,58.5 Z"/></g>
<g><path style="opacity:0.004" fill="#fefffe" d="M 85.5,60.5 C 86.8333,61.1667 86.8333,61.1667 85.5,60.5 Z"/></g>
<g><path style="opacity:0.004" fill="#fefffe" d="M 10.5,66.5 C 11.8333,67.1667 11.8333,67.1667 10.5,66.5 Z"/></g>
<g><path style="opacity:0.004" fill="#fefffe" d="M 273.5,79.5 C 274.833,80.1667 274.833,80.1667 273.5,79.5 Z"/></g>
<g><path style="opacity:0.004" fill="#fefffe" d="M 79.5,81.5 C 80.8333,82.1667 80.8333,82.1667 79.5,81.5 Z"/></g>
<g><path style="opacity:0.004" fill="#fefffe" d="M 265.5,81.5 C 266.833,82.1667 266.833,82.1667 265.5,81.5 Z"/></g>
<g><path style="opacity:0.004" fill="#fefffe" d="M 237.5,94.5 C 238.833,95.1667 238.833,95.1667 237.5,94.5 Z"/></g>
<g><path style="opacity:0.004" fill="#fefffe" d="M 191.5,98.5 C 192.833,99.1667 192.833,99.1667 191.5,98.5 Z"/></g>
<g><path style="opacity:0.004" fill="#fefffe" d="M 200.5,101.5 C 201.833,102.167 201.833,102.167 200.5,101.5 Z"/></g>
<g><path style="opacity:0.004" fill="#fefffe" d="M 44.5,104.5 C 45.8333,105.167 45.8333,105.167 44.5,104.5 Z"/></g>
<g><path style="opacity:0.004" fill="#fefffe" d="M 278.5,104.5 C 279.833,105.167 279.833,105.167 278.5,104.5 Z"/></g>
<g><path style="opacity:0.004" fill="#fefffe" d="M 17.5,107.5 C 18.8333,108.167 18.8333,108.167 17.5,107.5 Z"/></g>
<g><path style="opacity:0.004" fill="#fefffe" d="M 247.5,108.5 C 248.833,109.167 248.833,109.167 247.5,108.5 Z"/></g>
<g><path style="opacity:0.004" fill="#fefffe" d="M 268.5,111.5 C 269.833,112.167 269.833,112.167 268.5,111.5 Z"/></g>
<g><path style="opacity:0.004" fill="#fefffe" d="M 83.5,116.5 C 84.8333,117.167 84.8333,117.167 83.5,116.5 Z"/></g>
<g><path style="opacity:0.004" fill="#fefffe" d="M 51.5,118.5 C 52.8333,119.167 52.8333,119.167 51.5,118.5 Z"/></g>
<g><path style="opacity:0.004" fill="#fefffe" d="M 271.5,120.5 C 272.833,121.167 272.833,121.167 271.5,120.5 Z"/></g>
<g><path style="opacity:0.004" fill="#fefffe" d="M 263.5,122.5 C 264.833,123.167 264.833,123.167 263.5,122.5 Z"/></g>
<g><path style="opacity:0.004" fill="#fefffe" d="M 196.5,123.5 C 197.833,124.167 197.833,124.167 196.5,123.5 Z"/></g>
<g><path style="opacity:0.004" fill="#fefffe" d="M 114.5,127.5 C 115.833,128.167 115.833,128.167 114.5,127.5 Z"/></g>
<g><path style="opacity:0.004" fill="#fefffe" d="M 98.5,131.5 C 99.8333,132.167 99.8333,132.167 98.5,131.5 Z"/></g>
<g><path style="opacity:0.004" fill="#fefffe" d="M 217.5,135.5 C 218.833,136.167 218.833,136.167 217.5,135.5 Z"/></g>
<g><path style="opacity:0.994" fill="#020202" d="M 220.5,232.5 C 218.209,232.416 215.875,232.416 213.5,232.5C 212.646,233.522 211.646,234.355 210.5,235C 162.501,235.5 114.501,235.667 66.5,235.5C 55.2717,232.773 48.1051,225.773 45,214.5C 44.128,181.667 58.2946,158.667 87.5,145.5C 92.9455,143.222 98.6122,141.722 104.5,141C 127.833,140.333 151.167,140.333 174.5,141C 207.891,146.725 227.724,166.225 234,199.5C 236.782,213.689 232.282,224.689 220.5,232.5 Z"/></g>
<g><path style="opacity:0.004" fill="#fefffe" d="M 73.5,147.5 C 74.8333,148.167 74.8333,148.167 73.5,147.5 Z"/></g>
<g><path style="opacity:0.004" fill="#fefffe" d="M 251.5,158.5 C 252.833,159.167 252.833,159.167 251.5,158.5 Z"/></g>
<g><path style="opacity:0.004" fill="#fefffe" d="M 26.5,173.5 C 27.8333,174.167 27.8333,174.167 26.5,173.5 Z"/></g>
<g><path style="opacity:0.004" fill="#fefffe" d="M 5.5,179.5 C 6.83333,180.167 6.83333,180.167 5.5,179.5 Z"/></g>
<g><path style="opacity:0.004" fill="#fefffe" d="M 269.5,182.5 C 270.833,183.167 270.833,183.167 269.5,182.5 Z"/></g>
<g><path style="opacity:0.004" fill="#fefffe" d="M 25.5,192.5 C 26.8333,193.167 26.8333,193.167 25.5,192.5 Z"/></g>
<g><path style="opacity:0.004" fill="#fefffe" d="M 41.5,194.5 C 42.8333,195.167 42.8333,195.167 41.5,194.5 Z"/></g>
<g><path style="opacity:0.004" fill="#fefffe" d="M 25.5,195.5 C 26.8333,196.167 26.8333,196.167 25.5,195.5 Z"/></g>
<g><path style="opacity:0.004" fill="#fefffe" d="M 15.5,196.5 C 16.8333,197.167 16.8333,197.167 15.5,196.5 Z"/></g>
<g><path style="opacity:0.004" fill="#fefffe" d="M 241.5,210.5 C 242.833,211.167 242.833,211.167 241.5,210.5 Z"/></g>
<g><path style="opacity:0.004" fill="#fefffe" d="M 238.5,213.5 C 239.833,214.167 239.833,214.167 238.5,213.5 Z"/></g>
<g><path style="opacity:0.004" fill="#fefffe" d="M 254.5,224.5 C 255.833,225.167 255.833,225.167 254.5,224.5 Z"/></g>
<g><path style="opacity:0.004" fill="#fefffe" d="M 242.5,227.5 C 243.833,228.167 243.833,228.167 242.5,227.5 Z"/></g>
<g><path style="opacity:0.004" fill="#fefffe" d="M 223.5,234.5 C 224.833,235.167 224.833,235.167 223.5,234.5 Z"/></g>
<g><path style="opacity:0.118" fill="#23292a" d="M 220.5,232.5 C 217.865,234.328 214.865,235.495 211.5,236C 162.998,236.832 114.665,236.665 66.5,235.5C 114.501,235.667 162.501,235.5 210.5,235C 211.646,234.355 212.646,233.522 213.5,232.5C 215.875,232.416 218.209,232.416 220.5,232.5 Z"/></g>
<g><path style="opacity:0.004" fill="#fefffe" d="M 240.5,235.5 C 241.833,236.167 241.833,236.167 240.5,235.5 Z"/></g>
<g><path style="opacity:0.004" fill="#fefffe" d="M 203.5,239.5 C 204.833,240.167 204.833,240.167 203.5,239.5 Z"/></g>
<g><path style="opacity:0.004" fill="#fefffe" d="M 165.5,241.5 C 166.833,242.167 166.833,242.167 165.5,241.5 Z"/></g>
<g><path style="opacity:0.004" fill="#fefffe" d="M 195.5,241.5 C 196.833,242.167 196.833,242.167 195.5,241.5 Z"/></g>
<g><path style="opacity:0.004" fill="#fefffe" d="M 14.5,242.5 C 15.8333,243.167 15.8333,243.167 14.5,242.5 Z"/></g>
<g><path style="opacity:0.004" fill="#fefffe" d="M 23.5,242.5 C 24.8333,243.167 24.8333,243.167 23.5,242.5 Z"/></g>
<g><path style="opacity:0.004" fill="#fefffe" d="M 34.5,243.5 C 35.8333,244.167 35.8333,244.167 34.5,243.5 Z"/></g>
<g><path style="opacity:0.004" fill="#fefffe" d="M 184.5,243.5 C 185.833,244.167 185.833,244.167 184.5,243.5 Z"/></g>
<g><path style="opacity:0.004" fill="#fefffe" d="M 21.5,244.5 C 22.8333,245.167 22.8333,245.167 21.5,244.5 Z"/></g>
<g><path style="opacity:0.004" fill="#fefffe" d="M 122.5,245.5 C 123.833,246.167 123.833,246.167 122.5,245.5 Z"/></g>
<g><path style="opacity:0.004" fill="#fefffe" d="M 131.5,248.5 C 132.833,249.167 132.833,249.167 131.5,248.5 Z"/></g>
<g><path style="opacity:0.004" fill="#fefffe" d="M 64.5,255.5 C 65.8333,256.167 65.8333,256.167 64.5,255.5 Z"/></g>
<g><path style="opacity:0.004" fill="#fefffe" d="M 138.5,256.5 C 139.833,257.167 139.833,257.167 138.5,256.5 Z"/></g>
<g><path style="opacity:0.004" fill="#fefffe" d="M 73.5,267.5 C 74.8333,268.167 74.8333,268.167 73.5,267.5 Z"/></g>
</svg>
